<svg xmlns="http://www.w3.org/2000/svg" viewBox="0 0 52 52" id="briefcase"><path fill="#aa5821" d="M36.06 8.56v5.008a.55.55 0 0 1-.549.55h-2.558a.55.55 0 0 1-.55-.55V8.559c0-.616-.498-1.115-1.114-1.115H20.71c-.616 0-1.115.5-1.115 1.115v5.009a.55.55 0 0 1-.549.55h-2.558a.55.55 0 0 1-.55-.55V8.559a4.772 4.772 0 0 1 4.772-4.772H31.29A4.772 4.772 0 0 1 36.06 8.56z"></path><path fill="#994f1d" d="M31.398 7.442H20.711c-.621 0-1.115.494-1.115 1.115v5.01c0 .31-.238.548-.548.548h-2.56a.539.539 0 0 1-.549-.548v-.457h2.103a.562.562 0 0 0 .548-.549v-5.01c0-.62.494-1.115 1.116-1.115h10.577c.567 0 1.042.44 1.115 1.006zm4.663 1.115v5.01c0 .31-.238.548-.549.548h-2.56a.539.539 0 0 1-.548-.548v-.457h2.103a.562.562 0 0 0 .548-.549v-5.01a4.647 4.647 0 0 0-.97-2.87 4.82 4.82 0 0 1 1.976 3.876z"></path><path fill="#b75f25" d="M48.256 30.241v14.39a3.59 3.59 0 0 1-3.582 3.582H7.326a3.59 3.59 0 0 1-3.581-3.582V30.293c.268.134.557.227.856.268a140.67 140.67 0 0 0 18.406 1.435c1.992.041 3.984.02 5.987-.031 6.028-.144 12.139-.64 18.343-1.445.33-.041.64-.145.919-.279z"></path><path fill="#aa5821" d="M48.256 30.241v14.39a3.59 3.59 0 0 1-3.582 3.582H7.326a3.593 3.593 0 0 1-3.396-2.447 3.49 3.49 0 0 0 1.136.186h37.347a3.59 3.59 0 0 0 3.582-3.582V30.685c.444-.052.898-.103 1.342-.165.33-.041.64-.145.919-.279z"></path><path fill="#b75f25" d="M50 15.955v11.51a3.089 3.089 0 0 1-2.663 3.055c-6.029.784-11.964 1.27-17.827 1.435-2.354.072-4.687.082-7.02.041a140.149 140.149 0 0 1-17.889-1.435 2.761 2.761 0 0 1-.856-.268A3.077 3.077 0 0 1 2 27.516V15.955a5.141 5.141 0 0 1 5.14-5.14h37.72a5.141 5.141 0 0 1 5.14 5.14z"></path><path fill="#aa5821" d="M50 15.955v11.51a3.082 3.082 0 0 1-2.663 3.055C32.576 32.45 18.31 32.574 4.6 30.56a3.078 3.078 0 0 1-2.518-2.343c.072.02.154.03.227.041 13.698 2.013 27.974 1.9 42.725-.041 1.528-.196 2.673-1.517 2.673-3.056V13.663c0-.826-.196-1.61-.547-2.302A5.125 5.125 0 0 1 50 15.955z"></path><path fill="#f9b938" d="M28.994 10.814v21.14a105.4 105.4 0 0 1-5.987.042V10.814h5.987z"></path><path fill="#ecb021" d="M28.994 10.814v21.14a105.4 105.4 0 0 1-5.987.042v-1.755c1.398.017 1.77.007 3.177-.024a1.072 1.072 0 0 0 1.044-1.072v-18.33h1.766z"></path><path fill="#f9b938" d="M23.007 31.48h5.987v16.733h-5.987z"></path><path fill="#ecb021" d="M23.007 46.049h5.987v2.163h-5.987z"></path><path fill="#474646" d="M22.394 32.453v-3.995c0-.765.69-1.384 1.543-1.384h4.064c.853 0 1.544.62 1.544 1.384v4.001c0 .266-.13.52-.354.693l-2.524 1.953c-.38.294-.941.297-1.325.007l-2.586-1.96a.88.88 0 0 1-.362-.699z"></path><path fill="#2d2c2c" d="M29.54 28.455v4.006a.866.866 0 0 1-.35.691l-2.519 1.951c-.382.3-.95.3-1.332.01l-2.58-1.96a.862.862 0 0 1-.32-.455l1.992 1.507c.382.29.95.279 1.321-.01l2.53-1.951a.88.88 0 0 0 .35-.692v-4.005c0-.134-.02-.258-.062-.372.568.196.97.702.97 1.28zM12.02 11.06v3.542H8.17V11.06c0-.359.29-.649.648-.649h2.553c.358 0 .649.29.649.649z"></path><path fill="#f9b938" d="M7.151 18.358v-3.835c0-.637.57-1.153 1.27-1.153h3.346c.702 0 1.27.516 1.27 1.153v3.84a.735.735 0 0 1-.29.577l-2.078 1.626a.906.906 0 0 1-1.09.006l-2.13-1.632a.736.736 0 0 1-.298-.582z"></path><path fill="#ecb021" d="M7.151 18.357V14.52c0-.632.567-1.153 1.27-1.153h3.346c.603 0 1.113.385 1.235.9a1.258 1.258 0 0 0-.28-.033H9.377c-.704 0-1.27.514-1.27 1.153v3.836a.69.69 0 0 0 .056.267l-.71-.547a.735.735 0 0 1-.302-.586z"></path><path fill="#2d2c2c" d="M43.83 11.06v3.542h-3.85V11.06c0-.359.29-.649.65-.649h2.552c.358 0 .649.29.649.649z"></path><path fill="#f9b938" d="M38.962 18.358v-3.835c0-.637.57-1.153 1.27-1.153h3.346c.702 0 1.27.516 1.27 1.153v3.84a.735.735 0 0 1-.29.577l-2.078 1.626a.906.906 0 0 1-1.09.006l-2.13-1.632a.736.736 0 0 1-.298-.582z"></path><path fill="#ecb021" d="M38.962 18.357V14.52c0-.632.567-1.153 1.27-1.153h3.346c.603 0 1.113.385 1.235.9a1.258 1.258 0 0 0-.28-.033h-3.345c-.704 0-1.271.514-1.271 1.153v3.836a.69.69 0 0 0 .057.267l-.71-.547a.735.735 0 0 1-.302-.586z"></path><path fill="#fff" d="M21.051 4.482h1.129a.74.74 0 0 1 0 1.48H21.05a.74.74 0 0 1 0-1.48zm3.107 0h4.906a.74.74 0 0 1 0 1.48h-4.906a.74.74 0 0 1 0-1.48zM25.797 14.685v1.129a.74.74 0 0 1-1.48 0v-1.129a.74.74 0 0 1 1.48 0zm0 3.107v4.905a.74.74 0 0 1-1.48 0v-4.905a.74.74 0 0 1 1.48 0zM7.263 34.722v1.129a.74.74 0 0 1-1.48 0v-1.129a.74.74 0 0 1 1.48 0zm0 3.107v4.906a.74.74 0 0 1-1.48 0v-4.906a.74.74 0 0 1 1.48 0zM5.415 15.904v1.129a.74.74 0 0 1-1.48 0v-1.129a.74.74 0 0 1 1.48 0zm0 3.107v4.906a.74.74 0 0 1-1.48 0V19.01a.74.74 0 0 1 1.48 0z" opacity=".3"></path></svg>