<svg xmlns="http://www.w3.org/2000/svg" enable-background="new 0 0 64 64" viewBox="0 0 64 64" id="fast-food"><path fill="#e2dede" d="M47,48.61c0-0.94-0.66-1.74-1.58-1.93l-1.48-0.29c-1.29-0.26-2.6-0.39-3.92-0.39h0.48    c0.69,0,1.32-0.28,1.77-0.73S43,44.19,43,43.5c0-1.38-1.12-2.5-2.5-2.5h3.444c0.596,0,1.06-0.519,1.001-1.112    c-0.179-1.795-0.786-3.459-1.725-4.888h17.25l-0.7,16H42.95v0.01h-0.01C42.31,50.38,41.45,50,40.5,50H42l2.65,0.53    c0.13,0.03,0.26,0.04,0.39,0.04C46.1,50.57,47,49.72,47,48.61z"></path><path fill="#8ac926" d="M40.5,46h-33C6.119,46,5,44.881,5,43.5v0C5,42.119,6.119,41,7.5,41h33c1.381,0,2.5,1.119,2.5,2.5v0   C43,44.881,41.881,46,40.5,46z"></path><path fill="#8ac926" d="M40.5,46h-33C6.119,46,5,44.881,5,43.5v0C5,42.119,6.119,41,7.5,41h33c1.381,0,2.5,1.119,2.5,2.5v0   C43,44.881,41.881,46,40.5,46z"></path><path fill="#7aa822" d="M43,43.5c0,0.69-0.28,1.32-0.73,1.77C41.82,45.72,41.19,46,40.5,46h-33C6.12,46,5,44.88,5,43.5   c0-0.35,0.07-0.69,0.21-1C5.59,43.38,6.47,44,7.5,44h33c0.69,0,1.32-0.28,1.77-0.73c0.22-0.22,0.4-0.48,0.52-0.77   C42.93,42.81,43,43.15,43,43.5z"></path><path fill="#e02b4f" d="M61,23l-0.53,12H43.22c-0.42-0.64-0.9-1.24-1.44-1.78C39.79,31.23,37.04,30,34,30h-0.65L33,23H61z"></path><path fill="#dd6480" d="M51,23L51,23c-0.05,1.119-0.972,2-2.092,2H33.1L33,23H51z"></path><path fill="#fffad8" d="M40.5,50H41v0.04C40.84,50.01,40.67,50,40.5,50z"></path><path fill="#e02b4f" d="M59.77,51l-0.479,11.043C59.268,62.578,58.828,63,58.292,63H42c0.83,0,1.58-0.34,2.12-0.88   c0.578-0.578,0.927-1.396,0.875-2.295C44.936,58.79,44.036,58,43,58h-2.5c1.93,0,3.5-1.57,3.5-3.5v-1c0-0.17-0.01-0.34-0.04-0.5   c-0.11-0.78-0.47-1.47-1.01-1.99V51H59.77z"></path><polygon fill="#c90030" points="61 23 60.47 35 57.34 35 57.47 32 57.87 23"></polygon><polygon fill="#d3bebe" points="60.47 35 59.77 51 56.64 51 56.77 48 57.34 35"></polygon><path fill="#c90030" d="M40.5,58h2c1.93,0,3.5-1.57,3.5-3.5v-1c0-0.17-0.01-0.34-0.04-0.5c-0.11-0.78-0.47-1.47-1.01-1.99V51h-2    v0.01c0.54,0.52,0.9,1.21,1.01,1.99c0.03,0.16,0.04,0.33,0.04,0.5v1C44,56.43,42.43,58,40.5,58z"></path><path fill="#c90030" d="M56.64,51l-0.09,2.086C56.382,56.952,53.199,60,49.329,60H47c0-1.1-0.9-2-2-2h-2c1.1,0,2,0.9,2,2    c0,0.83-0.34,1.58-0.88,2.12C43.58,62.66,42.83,63,42,63h2h14.292c0.535,0,0.976-0.422,0.999-0.957L59.77,51H56.64z"></path><path fill="#e2dede" d="M63,20v2c0,0.552-0.448,1-1,1h-1H33h-1c-0.552,0-1-0.448-1-1v-2c0-0.552,0.448-1,1-1h13h4h13   C62.552,19,63,19.448,63,20z"></path><path fill="#d3bebe" d="M63,20v2c0,0.552-0.448,1-1,1H32c-0.552,0-1-0.448-1-1v-1h26c0.552,0,1-0.448,1-1v-1h4   C62.552,19,63,19.448,63,20z"></path><path fill="#666" d="M60,2.07v1.99c0,0.53-0.41,0.97-0.93,1l-8.2,0.55C49.82,5.68,49,6.55,49,7.6V19h-4V6.68   c0-2.63,2.04-4.82,4.67-4.99l9.26-0.62C59.51,1.03,60,1.49,60,2.07z"></path><path fill="#4d4d4d" d="M60,2.073V4.06c0,0.53-0.41,0.97-0.93,1l-8.21,0.551C49.813,5.681,49,6.551,49,7.6V19h-2V7.397   c0-2.06,1.597-3.768,3.653-3.906l6.417-0.43c0.52-0.03,0.93-0.47,0.93-1V1.13l0.93-0.06C59.509,1.033,60,1.493,60,2.073z"></path><path fill="#ffca3a" d="M30.11,53.82L24,50h-1h-9h-3H8H7.5H6l-2.65,0.53C2.13,50.77,1,49.85,1,48.61c0-0.94,0.66-1.74,1.58-1.93   l1.48-0.29C5.35,46.13,6.66,46,7.98,46H14h10h10h6.02c1.32,0,2.63,0.13,3.92,0.39l1.48,0.29c0.92,0.19,1.58,0.99,1.58,1.93   c0,1.11-0.9,1.96-1.96,1.96c-0.13,0-0.26-0.01-0.39-0.04L42,50h-1.5H39l-5.28,3.76l-0.09,0.07c-0.99,0.71-2.3,0.75-3.33,0.11   L30.11,53.82z"></path><path fill="#ff9700" d="M47,48.61c0,1.11-0.9,1.96-1.96,1.96c-0.13,0-0.26-0.01-0.39-0.04L42,50h-3l-5.28,3.76l-0.018,0.014   c-0.986,0.766-2.346,0.833-3.402,0.166l-0.19-0.12L24,50H6l-2.65,0.53C2.13,50.77,1,49.85,1,48.61c0-0.36,0.1-0.7,0.28-0.99   c0.41,0.68,1.22,1.08,2.07,0.91L6,48h16.566c0.937,0,1.856,0.263,2.651,0.76l4.894,3.06l0.19,0.12   c1.056,0.667,2.416,0.6,3.402-0.166l0.018-0.014L39,48h3l2.65,0.53c0.13,0.03,0.26,0.04,0.39,0.04c0.7,0,1.34-0.37,1.68-0.95   C46.9,47.91,47,48.25,47,48.61z"></path><path fill="#e89a10" d="M44.945,39.888C45.004,40.481,44.54,41,43.944,41H39h-5.1H29H19H9H4.055c-0.592,0-1.059-0.513-1.001-1.103   C3.607,34.336,8.292,30,14,30h19.35H34c3.04,0,5.79,1.23,7.78,3.22c0.54,0.54,1.02,1.14,1.44,1.78   C44.159,36.429,44.766,38.093,44.945,39.888z"></path><path fill="#c90030" d="M46.22,35h-3c-0.42-0.64-0.9-1.24-1.44-1.78C39.79,31.23,37.04,30,34,30h3c3.04,0,5.79,1.23,7.78,3.22   C45.32,33.76,45.8,34.36,46.22,35z"></path><path fill="#d3bebe" d="M49 48.61c0 1.11-.9 1.96-1.96 1.96-.13 0-.26-.01-.39-.04l-.77-.15c.65-.31 1.12-.97 1.12-1.77 0-.94-.66-1.74-1.58-1.93l-1.48-.29c-1.29-.26-2.6-.39-3.92-.39h.48c.69 0 1.32-.28 1.77-.73C42.72 44.82 43 44.19 43 43.5c0-1.38-1.12-2.5-2.5-2.5h3c1.38 0 2.5 1.12 2.5 2.5 0 .69-.28 1.32-.73 1.77C44.82 45.72 44.19 46 43.5 46h-1.48c1.32 0 2.63.13 3.92.39l1.48.29C48.34 46.87 49 47.67 49 48.61zM47.95 39.89C48 40.48 47.54 41 46.94 41h-3c.6 0 1.06-.52 1.01-1.11-.18-1.8-.79-3.46-1.73-4.89h3C47.16 36.43 47.77 38.09 47.95 39.89z"></path><path fill="#efab48" d="M14,30c-2.41,0-4.631,0.782-6.443,2.094c0.003,0.014,0.006,0.027,0.009,0.041   c0.362,1.703,2.18,2.655,3.755,1.911C12.739,33.375,14.324,33,16,33h7c1.657,0,3-1.343,3-3v0H14z"></path><path fill="#c97700" d="M43.944,41H4.055c-0.593,0-1.059-0.515-1.001-1.105C3.118,39.244,3.24,38.61,3.42,38l31.614,0   c3.055,0,4.89-3.39,3.22-5.948L38.22,32c-0.38-0.57-0.8-1.11-1.27-1.6c1.85,0.51,3.51,1.5,4.83,2.82c0.54,0.54,1.02,1.14,1.44,1.78   c0.939,1.429,1.546,3.093,1.725,4.888C45.004,40.481,44.54,41,43.944,41z"></path><path fill="#e89a10" d="M43,58c1.1,0,2,0.9,2,2c0,0.83-0.34,1.58-0.88,2.12C43.58,62.66,42.83,63,42,63h-2.75H6c-1.66,0-3-1.34-3-3   c0-0.55,0.22-1.05,0.59-1.41C3.95,58.22,4.45,58,5,58h2.5h33H43z"></path><path fill="#c97700" d="M45,60c0,0.83-0.34,1.58-0.88,2.12C43.58,62.66,42.83,63,42,63H6c-1.36,0-2.5-0.89-2.87-2.13   C3.4,60.95,3.7,61,4,61h36c0.83,0,1.58-0.34,2.12-0.88C42.66,59.58,43,58.83,43,58C44.1,58,45,58.9,45,60z"></path><path fill="#9e7059" d="M44,53.5v1c0,1.93-1.57,3.5-3.5,3.5h-33C5.57,58,4,56.43,4,54.5v-1C4,51.57,5.57,50,7.5,50H8v1.5   C8,52.33,8.67,53,9.5,53s1.5-0.67,1.5-1.5v2c0,0.83,0.67,1.5,1.5,1.5s1.5-0.67,1.5-1.5v-2c0,0.69,0.34,1.32,0.88,1.77   S16.17,54,17,54c0.77,0,1.48-0.24,2.01-0.64c0.59-0.44,1.39-0.44,1.98,0C21.52,53.76,22.23,54,23,54c0.79,0,1.51-0.26,2.05-0.67   c0.55-0.44,1.35-0.44,1.9,0C27.49,53.74,28.21,54,29,54c0.39,0,0.77-0.07,1.11-0.18l0.19,0.12c1.03,0.64,2.34,0.6,3.33-0.11   l0.09-0.07l0.01,0.01C34.12,53.92,34.55,54,35,54c0.77,0,1.48-0.24,2.01-0.64c0.59-0.44,1.39-0.44,1.98,0   C39.52,53.76,40.23,54,41,54c0.79,0,1.51-0.26,2.05-0.67c0.28-0.22,0.58-0.33,0.91-0.33C43.99,53.16,44,53.33,44,53.5z"></path><path fill="#995b3f" d="M43.96 53c-.33 0-.63.11-.91.33C42.51 53.74 41.79 54 41 54c-.77 0-1.48-.24-2.01-.64-.59-.44-1.39-.44-1.98 0C36.48 53.76 35.77 54 35 54c-.45 0-.88-.08-1.27-.23l-.01-.01-.09.07c-.99.71-2.3.75-3.33.11l-.19-.12C29.77 53.93 29.39 54 29 54c-.79 0-1.51-.26-2.05-.67-.55-.44-1.35-.44-1.9 0C24.51 53.74 23.79 54 23 54c-.77 0-1.48-.24-2.01-.64-.59-.44-1.39-.44-1.98 0C18.48 53.76 17.77 54 17 54c-.83 0-1.58-.28-2.12-.73C14.34 52.82 14 52.19 14 51.5v2c0 .69.34 1.32.88 1.77C15.42 55.72 16.17 56 17 56c.77 0 1.48-.24 2.01-.64.59-.44 1.39-.44 1.98 0C21.52 55.76 22.23 56 23 56c.79 0 1.51-.26 2.05-.67.55-.44 1.35-.44 1.9 0C27.49 55.74 28.21 56 29 56c.39 0 .77-.07 1.11-.18l.19.12c1.03.64 2.34.6 3.33-.11l.09-.07.01.01C34.12 55.92 34.55 56 35 56c.77 0 1.48-.24 2.01-.64.59-.44 1.39-.44 1.98 0C39.52 55.76 40.23 56 41 56c.79 0 1.51-.26 2.05-.67.28-.22.58-.33.91-.33.03-.16.04-.33.04-.5v-1C44 53.33 43.99 53.16 43.96 53zM12.5 55c-.83 0-1.5-.67-1.5-1.5v2c0 .83.67 1.5 1.5 1.5s1.5-.67 1.5-1.5v-2C14 54.33 13.33 55 12.5 55zM9.5 53C8.67 53 8 52.33 8 51.5V52v1.5C8 54.33 8.67 55 9.5 55s1.5-.67 1.5-1.5v-2C11 52.33 10.33 53 9.5 53z"></path><path fill="#e02b4f" d="M43.96,53c-0.33,0-0.63,0.11-0.91,0.33C42.51,53.74,41.79,54,41,54c-0.77,0-1.48-0.24-2.01-0.64   c-0.59-0.44-1.39-0.44-1.98,0C36.48,53.76,35.77,54,35,54c-0.45,0-0.88-0.08-1.27-0.23l-0.01-0.01L39,50h1.5   c0.95,0,1.81,0.38,2.44,1.01h0.01C43.49,51.53,43.85,52.22,43.96,53z"></path><path fill="#f4646f" d="M41,52.5c-0.419,0-0.822-0.123-1.106-0.337c-0.236-0.176-0.49-0.316-0.755-0.42l0.341-0.243H40.5   c0.521,0,1.011,0.203,1.379,0.57l0.147,0.147C41.747,52.396,41.382,52.5,41,52.5z"></path><path fill="#e02b4f" d="M24,50l6.11,3.82C29.77,53.93,29.39,54,29,54c-0.79,0-1.51-0.26-2.05-0.67c-0.55-0.44-1.35-0.44-1.9,0   C24.51,53.74,23.79,54,23,54c-0.77,0-1.48-0.24-2.01-0.64c-0.59-0.44-1.39-0.44-1.98,0C18.48,53.76,17.77,54,17,54   c-0.83,0-1.58-0.28-2.12-0.73S14,52.19,14,51.5V51v-1h9H24z"></path><path fill="#f4646f" d="M23,52.5c-0.419,0-0.822-0.123-1.106-0.337c-0.558-0.416-1.21-0.633-1.894-0.633s-1.336,0.217-1.887,0.627   C17.822,52.377,17.419,52.5,17,52.5c-0.446,0-0.868-0.139-1.16-0.382c-0.127-0.106-0.34-0.327-0.34-0.618h8.07l0.78,0.488   c-0.082,0.053-0.16,0.11-0.236,0.171C23.833,52.371,23.427,52.5,23,52.5z"></path><path fill="#e02b4f" d="M14 51.5v2c0 .83-.67 1.5-1.5 1.5S11 54.33 11 53.5v-2V50h3v1V51.5zM11 50v1.5c0 .83-.67 1.5-1.5 1.5S8 52.33 8 51.5V50H11z"></path><path fill="#995b3f" d="M21 34h-1c-.552 0-1-.448-1-1s.448-1 1-1h1c.552 0 1 .448 1 1S21.552 34 21 34zM27 34h-1c-.552 0-1-.448-1-1s.448-1 1-1h1c.552 0 1 .448 1 1S27.552 34 27 34z"></path><g><path fill="#995b3f" d="M33,35h-1c-0.552,0-1-0.448-1-1s0.448-1,1-1h1c0.552,0,1,0.448,1,1S33.552,35,33,35z"></path></g><g><path fill="#995b3f" d="M17,37h-1c-0.552,0-1-0.448-1-1s0.448-1,1-1h1c0.552,0,1,0.448,1,1S17.552,37,17,37z"></path></g><g><path fill="#995b3f" d="M25,37h-1c-0.552,0-1-0.448-1-1s0.448-1,1-1h1c0.552,0,1,0.448,1,1S25.552,37,25,37z"></path></g><g><path fill="#995b3f" d="M14,34h-1c-0.552,0-1-0.448-1-1s0.448-1,1-1h1c0.552,0,1,0.448,1,1S14.552,34,14,34z"></path></g></svg>